<?xml version="1.0" encoding="UTF-8"?>
<svg version="1.1" xmlns="http://www.w3.org/2000/svg" width="500" height="283">
<path d="M0 0 C9.22424546 9.00675285 14.78599844 18.98856355 19.81640625 30.75 C20.47013908 32.08972221 21.1300133 33.42671359 21.81640625 34.75 C22.57953125 33.739375 23.34265625 32.72875 24.12890625 31.6875 C32.32586315 22.18210867 45.25437186 16.5523165 57.65625 15.51171875 C73.79773901 15.12497437 86.39818418 20.5459354 98.12890625 31.4375 C106.12963176 39.78165888 110.3704487 50.02879864 111.359375 61.46484375 C111.44598389 62.45476318 111.53259277 63.44468262 111.62182617 64.46459961 C111.6860376 65.21878174 111.75024902 65.97296387 111.81640625 66.75 C112.41364502 66.72381592 113.01088379 66.69763184 113.6262207 66.6706543 C143.41062477 65.5458011 166.39531581 74.14784428 188.4453125 94.36328125 C192.26503866 98.20817859 195.57531704 102.41345885 198.81640625 106.75 C198.96335937 105.780625 199.1103125 104.81125 199.26171875 103.8125 C202.93690007 81.20913852 212.71308108 60.86477714 231.61230469 47.01708984 C250.3630706 33.97186633 272.6411623 27.40111053 295.41796875 31.46875 C316.95335768 35.97766213 336.2909141 47.25646934 348.90625 65.6484375 C361.07834352 85.4125321 366.84908202 106.73915114 361.81640625 129.75 C361.55730469 131.07837891 361.55730469 131.07837891 361.29296875 132.43359375 C356.88461102 151.69868955 344.11292214 170.04530161 327.7578125 180.95703125 C307.42361416 193.35198084 285.67598195 198.51290288 262.00390625 193.25 C244.86809382 188.93072573 229.51728883 178.86587303 217.81640625 165.75 C217.48640625 165.09 217.15640625 164.43 216.81640625 163.75 C216.66945313 164.98492187 216.5225 166.21984375 216.37109375 167.4921875 C212.64071231 196.54350818 201.16148676 220.40415036 177.85546875 239.12890625 C163.22247096 249.80557501 145.05395168 257.11348476 126.81640625 257.75 C125.75035156 257.78996094 124.68429687 257.82992188 123.5859375 257.87109375 C97.12618169 258.37033443 74.84308606 249.63523984 54.81640625 232.75 C54.16414062 232.20085937 53.511875 231.65171875 52.83984375 231.0859375 C36.85544916 216.31362971 25.64049679 193.60228292 24.69189453 171.90161133 C24.05675302 146.62810762 24.05675302 146.62810762 27.81640625 134.75 C28.19152344 133.55246094 28.56664062 132.35492188 28.953125 131.12109375 C31.26290491 124.25004501 33.98691 117.90978546 37.81640625 111.75 C37.04296875 111.21632812 36.26953125 110.68265625 35.47265625 110.1328125 C28.01786838 104.80005583 21.01675087 99.15068923 16.81640625 90.75 C16.34332031 91.50023438 15.87023437 92.25046875 15.3828125 93.0234375 C2.43764587 113.0594264 -14.13247292 127.69745866 -37.78662109 133.35302734 C-60.21318162 137.06718373 -81.38276135 132.94319279 -99.9296875 119.8046875 C-102.42945849 117.864226 -104.81781221 115.85110718 -107.18359375 113.75 C-107.88097656 113.14671875 -108.57835938 112.5434375 -109.296875 111.921875 C-123.80415772 98.51320204 -130.76231568 79.03641283 -132.18359375 59.75 C-132.66489462 39.29471319 -125.97641154 19.94717742 -112.18359375 4.75 C-111.43335937 3.90695313 -110.683125 3.06390625 -109.91015625 2.1953125 C-100.40979147 -7.91996262 -89.23578623 -13.86360744 -76.18359375 -18.25 C-74.98734375 -18.6625 -73.79109375 -19.075 -72.55859375 -19.5 C-46.12994324 -25.37303345 -20.1418071 -17.59390874 0 0 Z " fill="#F47930" transform="translate(133.18359375,23.25)"/>
<path d="M0 0 C17.35606515 13.98708329 29.024515 33.95783841 31.52734375 56.26171875 C32.32237673 65.0781901 31.89849983 73.31950982 30 82 C29.74089844 83.32837891 29.74089844 83.32837891 29.4765625 84.68359375 C25.06820477 103.94868955 12.29651589 122.29530161 -4.05859375 133.20703125 C-24.39279209 145.60198084 -46.1404243 150.76290288 -69.8125 145.5 C-87.38973979 141.06945899 -104.82642053 130.31637984 -115.6875 115.734375 C-117.3851968 112.19750666 -117.6850876 108.7899141 -118 104.9375 C-119.43341501 90.98806962 -123.02277286 77.30404409 -130.69140625 65.3671875 C-134.25890564 58.91374085 -132.10648341 50.60383514 -130.25 43.875 C-129.52389015 41.57565214 -128.77542293 39.28318974 -128 37 C-127.71125 36.113125 -127.4225 35.22625 -127.125 34.3125 C-119.71336632 13.66580617 -102.43202527 -1.48643214 -83.12109375 -10.71875 C-54.98559719 -22.26874108 -24.23860534 -18.29934443 0 0 Z " fill="#0184CB" transform="translate(465,71)"/>
<path d="M0 0 C15.63817236 15.26944985 22.93130782 33.89763055 23.25390625 55.6875 C23.22246268 64.86989568 21.48377591 73.01240305 18.81640625 81.75 C18.47609375 83.14798828 18.47609375 83.14798828 18.12890625 84.57421875 C14.06074759 100.7705754 -0.14157602 115.18101701 -13.93359375 123.9375 C-31.94064258 134.2312491 -54.97889174 137.76804249 -75.19873047 132.31347656 C-87.18504971 128.41038759 -97.79448642 122.08869084 -107.18359375 113.75 C-107.88097656 113.14671875 -108.57835938 112.5434375 -109.296875 111.921875 C-123.80415772 98.51320204 -130.76231568 79.03641283 -132.18359375 59.75 C-132.66489462 39.29471319 -125.97641154 19.94717742 -112.18359375 4.75 C-111.43335937 3.90695313 -110.683125 3.06390625 -109.91015625 2.1953125 C-100.40979147 -7.91996262 -89.23578623 -13.86360744 -76.18359375 -18.25 C-74.98734375 -18.6625 -73.79109375 -19.075 -72.55859375 -19.5 C-46.12994324 -25.37303345 -20.1418071 -17.59390874 0 0 Z " fill="#0EB9B9" transform="translate(133.18359375,23.25)"/>
<path d="M0 0 C12.14292277 9.51347784 19.26134159 20.69781787 21.41015625 36.09765625 C22.36657011 48.53103639 18.14051074 62.39948954 10.2734375 72.1015625 C9.72042969 72.73964844 9.16742188 73.37773438 8.59765625 74.03515625 C8.03433594 74.70417969 7.47101563 75.37320313 6.890625 76.0625 C-0.68657744 84.37349467 -11.28295494 90.18626601 -22.56347656 91.23632812 C-24.80610106 91.33758873 -27.03255064 91.36424694 -29.27734375 91.34765625 C-30.06818359 91.3427417 -30.85902344 91.33782715 -31.67382812 91.33276367 C-37.6751152 91.21256534 -42.86124767 90.45025612 -48.40234375 88.03515625 C-49.22863281 87.69484375 -50.05492187 87.35453125 -50.90625 87.00390625 C-60.22697554 82.79179211 -69.27783715 75.6479176 -73.40234375 66.03515625 C-74.00952534 61.70055438 -72.60878454 57.75564283 -71.421875 53.61328125 C-67.85891028 40.95995925 -67.01785324 28.29630995 -69.33984375 15.28515625 C-69.66241257 12.5457285 -69.58160341 11.37910677 -68.296875 8.9140625 C-51.98599789 -11.58107762 -20.8937409 -14.49330186 0 0 Z " fill="#B0D361" transform="translate(223.40234375,47.96484375)"/>
<path d="M0 0 C5.101717 3.68719288 10.34550782 8.62851565 13.1875 14.3125 C13.89675416 20.56788914 13.31680106 25.20855831 10.0625 30.62109375 C8.95776064 32.43920573 8.95776064 32.43920573 9.1875 35.3125 C12.4875 36.9625 15.7875 38.6125 19.1875 40.3125 C19.1875 40.9725 19.1875 41.6325 19.1875 42.3125 C18.59026123 42.35213867 17.99302246 42.39177734 17.37768555 42.43261719 C6.94173674 43.15502152 -3.25401769 43.96970351 -13.4375 46.4375 C-27.35587105 49.69253119 -42.64475389 50.59400259 -55.8125 44.3125 C-56.77542969 43.87679687 -57.73835938 43.44109375 -58.73046875 42.9921875 C-65.56346268 39.61718645 -71.33438601 35.26872799 -74.8125 28.3125 C-74.93577929 26.21101818 -74.98808006 24.10506093 -75 22 C-75.02126953 20.30423828 -75.02126953 20.30423828 -75.04296875 18.57421875 C-74.62308714 12.63182645 -72.13041189 8.35349117 -67.8125 4.3125 C-49.49220492 -9.86863214 -19.81827292 -11.9777104 0 0 Z " fill="#FCFDFE" transform="translate(459.8125,129.6875)"/>
<path d="M0 0 C1.02029297 -0.01224609 2.04058594 -0.02449219 3.09179688 -0.03710938 C17.28272754 -0.06427772 29.1776897 3.08995409 39.625 13.1875 C43.48054 17.13800404 46.97582734 21.13928054 47.13891602 26.875 C47.11369873 27.638125 47.08848145 28.40125 47.0625 29.1875 C46.34819824 29.17178955 45.63389648 29.1560791 44.89794922 29.13989258 C14.64055358 28.48579503 14.64055358 28.48579503 -11.43359375 42.5 C-14.71606462 46.53996415 -16.33412949 50.24567398 -17.9375 55.1875 C-22.54592512 54.92547997 -27.15405027 54.65882332 -31.76196289 54.38793945 C-33.32829589 54.29650665 -34.89470233 54.20632267 -36.46118164 54.11743164 C-38.71781737 53.9891567 -40.97414749 53.85633552 -43.23046875 53.72265625 C-44.27451118 53.66477684 -44.27451118 53.66477684 -45.33964539 53.60572815 C-48.95193337 53.38708959 -52.40980665 53.00296171 -55.9375 52.1875 C-52.05077187 49.00744972 -48.03797867 46.08195553 -43.9375 43.1875 C-44.38299979 40.58875125 -44.8432323 38.38158057 -46 36 C-47.64282734 31.07151797 -48.24459996 25.87127939 -45.91015625 21.078125 C-44.379972 18.95875623 -42.72957402 17.09065298 -40.9375 15.1875 C-39.93976563 14.03894531 -39.93976563 14.03894531 -38.921875 12.8671875 C-27.79568 0.74043539 -15.54001658 0.00977975 0 0 Z " fill="#FBFDFE" transform="translate(399.9375,91.8125)"/>
<path d="M0 0 C0.99 0.33 1.98 0.66 3 1 C3.31274919 9.51372785 2.37292913 17.6030674 1 26 C2.39412109 25.36771484 2.39412109 25.36771484 3.81640625 24.72265625 C5.06490103 24.1688127 6.31361057 23.61545307 7.5625 23.0625 C8.17158203 22.78470703 8.78066406 22.50691406 9.40820312 22.22070312 C13.63593037 20.36408217 17.40341342 19.46734921 22 19 C18.74244027 22.83095672 15.10830045 24.46497993 10.5 26.1875 C9.50419922 26.57711914 9.50419922 26.57711914 8.48828125 26.97460938 C5.36436561 28.18115164 2.28009521 29.30549005 -1 30 C-1.83211276 35.03854106 -2.1078534 39.8125662 -2.0625 44.9375 C-2.05798828 45.62134766 -2.05347656 46.30519531 -2.04882812 47.00976562 C-2.0371956 48.67321604 -2.01926694 50.3366205 -2 52 C2.86824006 49.93468604 5.24131264 46.38144463 8 42 C9.38003885 38.70827239 9.38003885 38.70827239 10 36 C10.66 36 11.32 36 12 36 C12.37122342 40.93508777 11.5272748 43.51521299 8.8125 47.625 C8.22082031 48.54539063 7.62914063 49.46578125 7.01953125 50.4140625 C4.90034362 53.12760642 2.8399671 55.05950801 0 57 C-2.6875 56.9375 -2.6875 56.9375 -5 56 C-7 53 -7 53 -7 49 C-7.66 49 -8.32 49 -9 49 C-9.26296875 49.5878125 -9.5259375 50.175625 -9.796875 50.78125 C-12.80433738 56.32747933 -18.48081316 61.12542352 -24 64 C-27.5625 64.5 -27.5625 64.5 -31 64 C-32.69321939 62.70055256 -34.36395804 61.37073786 -36 60 C-38.12148045 60.32043411 -38.12148045 60.32043411 -40 61 C-40.01981934 61.58378418 -40.03963867 62.16756836 -40.06005859 62.76904297 C-40.15662861 65.47140268 -40.26575973 68.17312394 -40.375 70.875 C-40.42140625 72.25171875 -40.42140625 72.25171875 -40.46875 73.65625 C-41.03350672 87.022159 -43.69140355 99.87224706 -53 110 C-56.22143276 112.14762184 -57.2595467 112.561068 -61 112 C-63.48117424 109.60252803 -63.98821159 108.07868079 -64.50390625 104.63671875 C-64.73076613 89.34636268 -60.01838344 77.78275462 -50 66 C-49.27554688 65.33871094 -48.55109375 64.67742187 -47.8046875 63.99609375 C-45.66925254 61.63417327 -45.43438447 60.38453599 -45.25 57.25 C-45.19328125 56.45078125 -45.1365625 55.6515625 -45.078125 54.828125 C-45.05234375 54.22484375 -45.0265625 53.6215625 -45 53 C-46.32 53 -47.64 53 -49 53 C-49.24105469 53.6909375 -49.48210938 54.381875 -49.73046875 55.09375 C-51.22396013 58.51269641 -53.17931224 61.46064818 -55.3125 64.5 C-55.88000977 65.33337891 -55.88000977 65.33337891 -56.45898438 66.18359375 C-58.99462448 69.83045346 -61.65142431 73.07411337 -65 76 C-67.8125 75.8125 -67.8125 75.8125 -70 75 C-70.44576609 68.97824757 -69.17811109 65.3011553 -66.4375 60.125 C-65.89984009 59.07880493 -65.89984009 59.07880493 -65.35131836 58.01147461 C-62.26477044 52.16381493 -58.69798656 46.69798656 -54 42 C-50.48314847 41.60923872 -48.66376321 41.52061546 -45.75 43.625 C-42.65696956 47.82268416 -41.69602668 51.83245364 -42 57 C-39.00367906 55.86931285 -37.28291202 55.16491882 -35 53 C-33.92151551 50.08589089 -33.34450102 47.22175666 -32.73828125 44.17578125 C-31.20285422 37.57100784 -27.82082767 30.82082767 -23 26 C-20.875 25.0625 -20.875 25.0625 -19 25 C-17 27 -17 27 -16.5625 30.5 C-16.83660044 39.43244949 -22.77499167 46.3601569 -28.42578125 52.7734375 C-30.38486779 55.0898779 -30.38486779 55.0898779 -30 59 C-26.80225786 59.57395372 -24.68209326 59.41076335 -21.87890625 57.72265625 C-19.49699679 55.90216739 -17.24639784 53.98501259 -15 52 C-14.24589844 51.38640625 -13.49179688 50.7728125 -12.71484375 50.140625 C-6.96982798 45.09418647 -5.55485667 40.54605078 -5 33 C-6.093125 33.495 -7.18625 33.99 -8.3125 34.5 C-12 36 -12 36 -15 36 C-15 34.68 -15 33.36 -15 32 C-13.73160474 31.49384702 -12.46016898 30.99530901 -11.1875 30.5 C-10.47980469 30.2215625 -9.77210937 29.943125 -9.04296875 29.65625 C-7 29 -7 29 -4 29 C-2.67470341 20.53354215 -1.71132991 12.22261734 -1.24609375 3.66796875 C-1 1 -1 1 0 0 Z " fill="#E8F6F6" transform="translate(109,25)"/>
<path d="M0 0 C0.66 0 1.32 0 2 0 C1.85915204 1.79206547 1.71216299 3.58364917 1.5625 5.375 C1.44068359 6.87160156 1.44068359 6.87160156 1.31640625 8.3984375 C1 11 1 11 0 13 C-0.15123831 14.5195764 -0.24881693 16.04472502 -0.31640625 17.5703125 C-0.35830078 18.46621094 -0.40019531 19.36210937 -0.44335938 20.28515625 C-0.48267578 21.22230469 -0.52199219 22.15945312 -0.5625 23.125 C-0.62727539 24.54232422 -0.62727539 24.54232422 -0.69335938 25.98828125 C-0.7995894 28.32534172 -0.90031271 30.6626513 -1 33 C0.98 29.37 2.96 25.74 5 22 C6.485 22.495 6.485 22.495 8 23 C8.06058594 24.07121094 8.12117188 25.14242187 8.18359375 26.24609375 C8.26798537 27.64324391 8.35263406 29.04037857 8.4375 30.4375 C8.47681641 31.14455078 8.51613281 31.85160156 8.55664062 32.58007812 C8.47624438 36.08690419 8.47624438 36.08690419 10 39 C16.01515972 39.89587485 19.57670391 38.02280983 24.62890625 34.80078125 C27.51498486 32.608883 29.68627967 30.21784533 31.84375 27.3203125 C32.41609375 26.66675781 32.41609375 26.66675781 33 26 C33.66 26 34.32 26 35 26 C34.52237634 30.29861295 32.098719 32.17073483 29 35 C28.45859375 35.51046875 27.9171875 36.0209375 27.359375 36.546875 C22.58106729 40.89470453 18.32169189 43.61672786 11.75 44.375 C8.53603829 43.93673249 7.93350916 43.52594929 6 41 C5.01608979 37.36426763 4.57082334 33.73230645 4 30 C0.535 40.395 0.535 40.395 -3 51 C-4.32 51 -5.64 51 -7 51 C-7.495 48.03 -7.495 48.03 -8 45 C-8.97839844 45.83144531 -8.97839844 45.83144531 -9.9765625 46.6796875 C-10.85054688 47.40414062 -11.72453125 48.12859375 -12.625 48.875 C-13.48351562 49.59429687 -14.34203125 50.31359375 -15.2265625 51.0546875 C-19.44861479 54.01607066 -22.66585967 55.08748461 -27.8125 54.75 C-28.864375 54.5025 -29.91625 54.255 -31 54 C-31.33 53.34 -31.66 52.68 -32 52 C-36.05765352 53.94880343 -39.82953716 56.3041815 -43.66015625 58.66015625 C-48.03004374 61.16244575 -52.06801254 61.59844199 -57 61 C-58.875 59.625 -58.875 59.625 -60 58 C-60.66 57.34 -61.32 56.68 -62 56 C-62.48210937 56.77085937 -62.96421875 57.54171875 -63.4609375 58.3359375 C-64.09257812 59.33882812 -64.72421875 60.34171875 -65.375 61.375 C-66.31472656 62.87160156 -66.31472656 62.87160156 -67.2734375 64.3984375 C-69 67 -69 67 -71 69 C-72.32 69 -73.64 69 -75 69 C-79.13971382 60.72057236 -75.30828197 47.46768721 -73 39 C-72.67 38.34 -72.34 37.68 -72 37 C-71.34 37 -70.68 37 -70 37 C-70.0721875 37.78761719 -70.144375 38.57523438 -70.21875 39.38671875 C-70.8912771 47.27957154 -71.11665255 55.08058786 -71 63 C-66.09466434 57.42039139 -63.54540695 51.77711612 -61.17578125 44.7578125 C-60 42 -60 42 -57 40 C-56 43 -56 43 -57 46 C-57.19459037 47.95586747 -57.19459037 47.95586747 -57.1875 50 C-57.20876953 51.0209375 -57.20876953 51.0209375 -57.23046875 52.0625 C-57.10940411 54.32614132 -57.10940411 54.32614132 -55 57 C-50.28425252 57.6176965 -47.42740296 56.53332763 -43.375 54.1875 C-42.45460938 53.66542969 -41.53421875 53.14335937 -40.5859375 52.60546875 C-35.97890383 50.03645621 -35.97890383 50.03645621 -33.1640625 45.8359375 C-32.98617187 45.02382812 -32.80828125 44.21171875 -32.625 43.375 C-30.45020501 35.32238072 -25.99649267 28.61470793 -19 24 C-16.125 23.6875 -16.125 23.6875 -14 24 C-16.15672794 26.15672794 -18.31608367 28.30818157 -20.5 30.4375 C-24.70503837 34.74766433 -27.36327329 38.13506262 -29 44 C-28.34 44 -27.68 44 -27 44 C-27.33 45.98 -27.66 47.96 -28 50 C-21.48630189 51.02847865 -17.12050184 47.53904467 -12 44 C-11.01 43.319375 -10.02 42.63875 -9 41.9375 C-4.84653525 35.83709865 -5.14984882 27.84126575 -4.546875 20.65625 C-4.46590576 19.72361328 -4.38493652 18.79097656 -4.30151367 17.83007812 C-4.14446582 15.97052894 -4.0009772 14.1097754 -3.87231445 12.24804688 C-3.48838523 7.50128563 -3.16317027 3.80531761 0 0 Z " fill="#FDF1EB" transform="translate(299,144)"/>
<path d="M0 0 C0.66 0.33 1.32 0.66 2 1 C2.24923458 8.93396732 1.70994772 16.2441657 0 24 C1.134375 23.401875 2.26875 22.80375 3.4375 22.1875 C8.62724457 19.59262771 14.12888114 17 20 17 C20.25052192 24.2651357 20.25052192 24.2651357 19.0625 27.75 C17.43781006 32.71963981 17.31952168 37.80356852 17 43 C20.50256396 41.10672218 23.0719316 39.54211915 25 36 C25.36157879 32.9522555 25.36157879 32.9522555 25.1875 29.75 C25.16042969 28.67234375 25.13335937 27.5946875 25.10546875 26.484375 C25.05326172 25.25460938 25.05326172 25.25460938 25 24 C24.34 23.67 23.68 23.34 23 23 C23 22.34 23 21.68 23 21 C24.32 21 25.64 21 27 21 C29.09678918 27.42141686 30.24461206 32.82100193 27.25 39.1875 C25.52398098 42.29554125 23.94910299 44.91828024 21 47 C17.875 47.4375 17.875 47.4375 15 47 C12.64880601 43.47320901 12.78556548 41.97120515 12.875 37.8125 C12.89304688 36.72582031 12.91109375 35.63914063 12.9296875 34.51953125 C12.95289063 33.68808594 12.97609375 32.85664063 13 32 C12.63648438 32.78503906 12.27296875 33.57007813 11.8984375 34.37890625 C4.6824264 49.45851918 4.6824264 49.45851918 -1.6875 52.125 C-4 52 -4 52 -5.625 50.78125 C-8.24852002 47.38259907 -7.35877828 43.09360133 -7 39 C-6.47626984 35.95609819 -5.80641918 32.98087091 -5 30 C-6.36125 30.7734375 -6.36125 30.7734375 -7.75 31.5625 C-11 33 -11 33 -13.375 32.6875 C-13.91125 32.460625 -14.4475 32.23375 -15 32 C-14.505 30.515 -14.505 30.515 -14 29 C-11.71484375 28.05078125 -11.71484375 28.05078125 -8.9375 27.3125 C-8.01839844 27.06113281 -7.09929687 26.80976563 -6.15234375 26.55078125 C-5.44207031 26.36902344 -4.73179687 26.18726563 -4 26 C-3.91435791 25.2479126 -3.82871582 24.4958252 -3.74047852 23.72094727 C-3.35229855 20.33426705 -2.95749016 16.94839239 -2.5625 13.5625 C-2.36043945 11.78649414 -2.36043945 11.78649414 -2.15429688 9.97460938 C-2.02216797 8.84990234 -1.89003906 7.72519531 -1.75390625 6.56640625 C-1.63345947 5.52427979 -1.5130127 4.48215332 -1.38891602 3.40844727 C-1 1 -1 1 0 0 Z " fill="#F47C36" transform="translate(191,169)"/>
<path d="M0 0 C0.53654086 14.68471072 0.86341249 27.36677111 -8.4375 39.57421875 C-10.25320449 41.2310491 -11.59984314 41.61204361 -14 42 C-17.3024714 37.0462929 -16.60017016 31.78288954 -16 26 C-14.55823763 20.40673439 -7.59135366 0 0 0 Z " fill="#14BABA" transform="translate(64,91)"/>
<path d="M0 0 C0.99 0.33 1.98 0.66 3 1 C3.31274919 9.51372785 2.37292913 17.6030674 1 26 C1.92941406 25.57847656 2.85882813 25.15695313 3.81640625 24.72265625 C5.06490103 24.1688127 6.31361057 23.61545307 7.5625 23.0625 C8.47612305 22.64581055 8.47612305 22.64581055 9.40820312 22.22070312 C13.63593037 20.36408217 17.40341342 19.46734921 22 19 C18.74244027 22.83095672 15.10830045 24.46497993 10.5 26.1875 C9.50419922 26.57711914 9.50419922 26.57711914 8.48828125 26.97460938 C5.36436561 28.18115164 2.28009521 29.30549005 -1 30 C-1.83211276 35.03854106 -2.1078534 39.8125662 -2.0625 44.9375 C-2.05798828 45.62134766 -2.05347656 46.30519531 -2.04882812 47.00976562 C-2.0371956 48.67321604 -2.01926694 50.3366205 -2 52 C2.86824006 49.93468604 5.24131264 46.38144463 8 42 C9.38003885 38.70827239 9.38003885 38.70827239 10 36 C10.66 36 11.32 36 12 36 C12.37122342 40.93508777 11.5272748 43.51521299 8.8125 47.625 C8.22082031 48.54539063 7.62914063 49.46578125 7.01953125 50.4140625 C4.90348096 53.12358917 2.82105946 55.04345876 0 57 C-2.5625 57.25 -2.5625 57.25 -5 56 C-6.8434129 53.50630341 -8.27598615 51.02514315 -9 48 C-8.16796875 46.09765625 -8.16796875 46.09765625 -7 44 C-6.56901247 42.09514151 -6.19607236 40.17643418 -5.875 38.25 C-5.70742187 37.26515625 -5.53984375 36.2803125 -5.3671875 35.265625 C-5.24601562 34.51796875 -5.12484375 33.7703125 -5 33 C-6.093125 33.495 -7.18625 33.99 -8.3125 34.5 C-12 36 -12 36 -15 36 C-15 34.68 -15 33.36 -15 32 C-13.73160474 31.49384702 -12.46016898 30.99530901 -11.1875 30.5 C-10.47980469 30.2215625 -9.77210937 29.943125 -9.04296875 29.65625 C-7 29 -7 29 -4 29 C-2.67470341 20.53354215 -1.71132991 12.22261734 -1.24609375 3.66796875 C-1 1 -1 1 0 0 Z " fill="#ECF8F8" transform="translate(109,25)"/>
<path d="M0 0 C0.99 0.33 1.98 0.66 3 1 C2.67 6.61 2.34 12.22 2 18 C3.051875 15.7415625 3.051875 15.7415625 4.125 13.4375 C6.53197451 8.58906711 9.313561 4.94363242 13 1 C15.375 1.25 15.375 1.25 18 2 C20.20439359 5.24175528 20.34234734 8.34185455 20.5625 12.1875 C20.46789478 15.91007457 20.46789478 15.91007457 22 19 C26.55015073 18.96094291 30.743144 18.29966796 34.875 16.375 C38 15 38 15 41 16 C39.42210402 17.15330947 37.8374518 18.29737927 36.25 19.4375 C35.36828125 20.07558594 34.4865625 20.71367188 33.578125 21.37109375 C29.13463635 24.17857067 25.23242049 24.38053967 20 24 C17.42671303 22.45602782 17.08760448 21.32652579 16.3125 18.4375 C15.90445767 13.94903435 15.9199017 9.50330462 16 5 C12.51277474 6.40643721 11.21540419 7.79128558 9.4921875 11.10546875 C9.06292969 11.92466797 8.63367188 12.74386719 8.19140625 13.58789062 C7.75699219 14.44576172 7.32257813 15.30363281 6.875 16.1875 C6.21177734 17.44530273 6.21177734 17.44530273 5.53515625 18.72851562 C3.10931295 23.42263234 1.23775622 27.86122558 0 33 C-1.32 33 -2.64 33 -4 33 C-4.45339251 25.67855052 -3.65481515 18.66110331 -2.5625 11.4375 C-2.42803467 10.54450195 -2.29356934 9.65150391 -2.1550293 8.73144531 C-1.13903792 2.27807583 -1.13903792 2.27807583 0 0 Z " fill="#F5F9ED" transform="translate(188,77)"/>
<path d="M0 0 C0.66 0.33 1.32 0.66 2 1 C2.24923458 8.93396732 1.70994772 16.2441657 0 24 C1.134375 23.401875 2.26875 22.80375 3.4375 22.1875 C15.11242867 16.37080956 15.11242867 16.37080956 20 18 C18.98679688 18.47050781 17.97359375 18.94101563 16.9296875 19.42578125 C15.57810425 20.0546429 14.22654291 20.68355166 12.875 21.3125 C11.87726563 21.7755957 11.87726563 21.7755957 10.859375 22.24804688 C9.53583094 22.86440318 8.21514343 23.48693267 6.89746094 24.11572266 C5.14406931 24.9328591 3.3579994 25.67886813 1.5703125 26.41796875 C-1.15467686 27.73573241 -1.15467686 27.73573241 -1.83984375 30.19921875 C-1.89269531 31.12347656 -1.94554687 32.04773438 -2 33 C-2.10441406 34.24394531 -2.20882812 35.48789063 -2.31640625 36.76953125 C-2.40185391 38.1169752 -2.48382132 39.46464387 -2.5625 40.8125 C-2.60568359 41.50537109 -2.64886719 42.19824219 -2.69335938 42.91210938 C-2.79861453 44.60788686 -2.89972863 46.30392052 -3 48 C0.57928719 46.55898828 2.07400774 44.85719199 4.125 41.625 C4.87136719 40.46871094 4.87136719 40.46871094 5.6328125 39.2890625 C6.86229312 37.23056065 7.96388739 35.16103487 9 33 C9.33 33 9.66 33 10 33 C10.37026847 37.87757509 9.64403654 40.26595888 6.75 44.1875 C6.14671875 45.02667969 5.5434375 45.86585938 4.921875 46.73046875 C3.08008279 48.90543069 1.41195849 50.49128523 -1 52 C-4.00388632 51.73495121 -4.83304275 51.16695725 -7 49 C-7.83310886 42.51890314 -6.68942727 36.24484724 -5 30 C-6.36125 30.7734375 -6.36125 30.7734375 -7.75 31.5625 C-11 33 -11 33 -13.375 32.6875 C-13.91125 32.460625 -14.4475 32.23375 -15 32 C-14.505 30.515 -14.505 30.515 -14 29 C-11.71484375 28.05078125 -11.71484375 28.05078125 -8.9375 27.3125 C-8.01839844 27.06113281 -7.09929687 26.80976563 -6.15234375 26.55078125 C-5.44207031 26.36902344 -4.73179687 26.18726563 -4 26 C-3.91435791 25.2479126 -3.82871582 24.4958252 -3.74047852 23.72094727 C-3.35229855 20.33426705 -2.95749016 16.94839239 -2.5625 13.5625 C-2.36043945 11.78649414 -2.36043945 11.78649414 -2.15429688 9.97460938 C-2.02216797 8.84990234 -1.89003906 7.72519531 -1.75390625 6.56640625 C-1.63345947 5.52427979 -1.5130127 4.48215332 -1.38891602 3.40844727 C-1 1 -1 1 0 0 Z " fill="#FDF0EB" transform="translate(191,169)"/>
<path d="M0 0 C0 0.66 0 1.32 0 2 C0.99 2.495 0.99 2.495 2 3 C0.85337891 2.96072388 0.85337891 2.96072388 -0.31640625 2.9206543 C-19.68888476 2.34513316 -37.24514278 1.99948845 -53 15 C-56.48012598 18.6455545 -57.59409347 21.33854213 -58.25 26.3125 C-58.47429687 27.91544922 -58.47429687 27.91544922 -58.703125 29.55078125 C-58.80109375 30.35902344 -58.8990625 31.16726562 -59 32 C-59.33 32 -59.66 32 -60 32 C-60.33 30.35 -60.66 28.7 -61 27 C-62.65 27 -64.3 27 -66 27 C-64.68 26.67 -63.36 26.34 -62 26 C-61.979375 25.195625 -61.95875 24.39125 -61.9375 23.5625 C-60.07295295 16.4772212 -55.32443678 11.51098585 -49.1875 7.6875 C-36.8246678 0.94583471 -13.69749803 -6.84874902 0 0 Z " fill="#208DCE" transform="translate(444,121)"/>
<path d="M0 0 C0.66 0 1.32 0 2 0 C1.125 7.625 1.125 7.625 0 11 C-0.22325814 13.05893621 -0.40705759 15.12233653 -0.5625 17.1875 C-0.64628906 18.27417969 -0.73007813 19.36085937 -0.81640625 20.48046875 C-0.87699219 21.31191406 -0.93757812 22.14335937 -1 23 C2.50256396 21.10672218 5.0719316 19.54211915 7 16 C7.36157879 12.9522555 7.36157879 12.9522555 7.1875 9.75 C7.16042969 8.67234375 7.13335937 7.5946875 7.10546875 6.484375 C7.07066406 5.66453125 7.03585938 4.8446875 7 4 C6.34 3.67 5.68 3.34 5 3 C5 2.34 5 1.68 5 1 C6.32 1 7.64 1 9 1 C11.09678918 7.42141686 12.24461206 12.82100193 9.25 19.1875 C7.52398098 22.29554125 5.94910299 24.91828024 3 27 C-0.125 27.4375 -0.125 27.4375 -3 27 C-6.01300795 22.48048807 -5.56119602 18.30165182 -5 13 C-2.22884013 2.22884013 -2.22884013 2.22884013 0 0 Z " fill="#FDE9E1" transform="translate(209,189)"/>
<path d="M0 0 C0.99 0.33 1.98 0.66 3 1 C1.66666667 5 0.33333333 9 -1 13 C-1.09467365 15.18584749 -1.12988914 17.37460867 -1.125 19.5625 C-1.12757812 20.71878906 -1.13015625 21.87507813 -1.1328125 23.06640625 C-1.20202616 25.93453438 -1.20202616 25.93453438 0 28 C2.77687284 27.64537771 3.79131005 27.24613432 5.6328125 25.07421875 C6.12523437 24.28660156 6.61765625 23.49898437 7.125 22.6875 C7.62257813 21.90761719 8.12015625 21.12773438 8.6328125 20.32421875 C9.85222955 18.25120977 10.95870445 16.16688646 12 14 C12.99 14 13.98 14 15 14 C12.95357641 21.75486836 9.83407727 28.44394849 3 33 C0.5 33.375 0.5 33.375 -2 33 C-4.94099946 30.17918561 -5.41705772 27.62996199 -5.51757812 23.6171875 C-5.50887695 22.60011719 -5.50887695 22.60011719 -5.5 21.5625 C-5.49935547 20.86253906 -5.49871094 20.16257812 -5.49804688 19.44140625 C-5.29727836 12.29145666 -3.08971663 6.44426612 0 0 Z " fill="#E5F5F5" transform="translate(50,104)"/>
<path d="M0 0 C0.99 0 1.98 0 3 0 C2.3082619 4.39891703 1.39983039 8.71574197 0.4375 13.0625 C-1.37342534 21.70633484 -1.97160708 30.31856881 0 39 C-1.32 39 -2.64 39 -4 39 C-6.75539867 30.56159159 -5.91178424 23.45409878 -4.125 14.875 C-3.95097656 13.99457031 -3.77695313 13.11414063 -3.59765625 12.20703125 C-2.73159577 7.953712 -1.82671678 3.96611481 0 0 Z " fill="#F6FAF0" transform="translate(180,75)"/>
<path d="M0 0 C0.7425 0.2475 1.485 0.495 2.25 0.75 C0.39716918 4.84080063 -2.13187355 8.4696161 -4.625 12.1875 C-5.05941406 12.84298828 -5.49382813 13.49847656 -5.94140625 14.17382812 C-8.38481554 17.8316045 -10.8201399 21.45866366 -13.75 24.75 C-14.41 24.75 -15.07 24.75 -15.75 24.75 C-15.20467693 19.49210891 -13.43564313 15.67697041 -10.9375 11.125 C-10.59396484 10.47015625 -10.25042969 9.8153125 -9.89648438 9.140625 C-4.73322584 -0.43029326 -4.73322584 -0.43029326 0 0 Z " fill="#15BABA" transform="translate(58.75,71.25)"/>
<path d="M0 0 C1.37095624 3.69037278 0.60010967 5.70883835 -0.9375 9.25 C-1.31777344 10.14203125 -1.69804688 11.0340625 -2.08984375 11.953125 C-2.54037109 12.96632813 -2.54037109 12.96632813 -3 14 C-1.824375 13.2884375 -1.824375 13.2884375 -0.625 12.5625 C0.88948678 11.66101977 2.4235897 10.78820515 4 10 C3.65657251 13.09084737 2.74044345 14.32444569 0.75 16.8125 C-2 19 -2 19 -4.8125 18.8125 C-5.534375 18.544375 -6.25625 18.27625 -7 18 C-7.5167325 11.9283931 -6.1855142 7.23106178 -3 2 C-2.01 1.34 -1.02 0.68 0 0 Z " fill="#EAF7F7" transform="translate(46,82)"/>
<path d="M0 0 C0.66 0 1.32 0 2 0 C1.9278125 0.76441406 1.855625 1.52882812 1.78125 2.31640625 C1.03647266 10.912378 0.89269814 19.38008375 1 28 C0.34 28 -0.32 28 -1 28 C-1.33 24.37 -1.66 20.74 -2 17 C-2.33 21.29 -2.66 25.58 -3 30 C-3.33 30 -3.66 30 -4 30 C-4.40460871 20.13953599 -4.53293339 9.06586679 0 0 Z " fill="#FCE0D3" transform="translate(227,181)"/>
<path d="M0 0 C0.66 0 1.32 0 2 0 C1.85915204 1.79206547 1.71216299 3.58364917 1.5625 5.375 C1.48128906 6.37273437 1.40007812 7.37046875 1.31640625 8.3984375 C1 11 1 11 0 13 C-0.15004973 14.3734635 -0.24838006 15.7528526 -0.31640625 17.1328125 C-0.35830078 17.93847656 -0.40019531 18.74414062 -0.44335938 19.57421875 C-0.50233398 20.83685547 -0.50233398 20.83685547 -0.5625 22.125 C-0.60568359 22.97449219 -0.64886719 23.82398438 -0.69335938 24.69921875 C-0.79954236 26.79928223 -0.90028497 28.89961948 -1 31 C-1.33 31 -1.66 31 -2 31 C-2.33 28.03 -2.66 25.06 -3 22 C-3.33 22 -3.66 22 -4 22 C-3.91269147 19.26935053 -3.80577876 16.5418381 -3.6875 13.8125 C-3.66494141 13.04357422 -3.64238281 12.27464844 -3.61914062 11.48242188 C-3.40378393 6.92077553 -2.98862171 3.68227712 0 0 Z " fill="#FCE3D8" transform="translate(299,144)"/>
<path d="M0 0 C0.66 0 1.32 0 2 0 C1.84176499 7.12057532 -1.67297248 12.47379626 -6 18 C-6.66 18 -7.32 18 -8 18 C-6.87444115 10.90897923 -4.77058184 5.48357641 0 0 Z " fill="#1DBCBC" transform="translate(87,55)"/>
<path d="M0 0 C0.66 0 1.32 0 2 0 C1.52237634 4.29861295 -0.901281 6.17073483 -4 9 C-4.55300781 9.52207031 -5.10601562 10.04414063 -5.67578125 10.58203125 C-9.25884029 13.84730235 -12.1826563 15.82503812 -17 17 C-16.79296875 15.17578125 -16.79296875 15.17578125 -16 13 C-13.92578125 11.54296875 -13.92578125 11.54296875 -11.3125 10.1875 C-6.96096199 7.75337788 -4.12256174 5.30413815 -1.15625 1.3203125 C-0.7746875 0.88460937 -0.393125 0.44890625 0 0 Z " fill="#FDF0EB" transform="translate(332,170)"/>
<path d="M0 0 C-6.30430725 3.95851851 -13.02814901 6.4419073 -20 9 C-20 8.34 -20 7.68 -20 7 C-20.66 7 -21.32 7 -22 7 C-21.67 5.68 -21.34 4.36 -21 3 C-21 3.99 -21 4.98 -21 6 C-20.03578125 5.57847656 -19.0715625 5.15695313 -18.078125 4.72265625 C-16.80215324 4.16910968 -15.52610767 3.61573319 -14.25 3.0625 C-13.61578125 2.78470703 -12.9815625 2.50691406 -12.328125 2.22070312 C-4.06026786 -1.35342262 -4.06026786 -1.35342262 0 0 Z " fill="#DDF2F2" transform="translate(131,45)"/>
<path d="M0 0 C0.66 0.33 1.32 0.66 2 1 C1.54625 1.391875 1.0925 1.78375 0.625 2.1875 C-1.30840547 4.34399072 -2.02860815 6.28010281 -3 9 C-3.350625 9.763125 -3.70125 10.52625 -4.0625 11.3125 C-5.30479869 14.87375623 -5.61852412 18.24882052 -6 22 C-6.33 22 -6.66 22 -7 22 C-7.33 20.35 -7.66 18.7 -8 17 C-9.65 17 -11.3 17 -13 17 C-11.68 16.67 -10.36 16.34 -9 16 C-8.979375 15.195625 -8.95875 14.39125 -8.9375 13.5625 C-7.51851569 8.17035963 -3.9269099 3.9269099 0 0 Z " fill="#228DCE" transform="translate(391,131)"/>
<path d="M0 0 C0.99 0.33 1.98 0.66 3 1 C3.05410687 2.77049689 3.09284119 4.54146849 3.125 6.3125 C3.14820312 7.29863281 3.17140625 8.28476562 3.1953125 9.30078125 C3 12 3 12 1 15 C0.34 15 -0.32 15 -1 15 C-1.02685412 12.68756208 -1.04632841 10.3750373 -1.0625 8.0625 C-1.07410156 6.77472656 -1.08570312 5.48695312 -1.09765625 4.16015625 C-1 1 -1 1 0 0 Z " fill="#DFF3F3" transform="translate(109,25)"/>
<path d="M0 0 C-1.30595212 3.91785635 -2.95847939 4.49868051 -6.4375 6.625 C-7.42621094 7.23601562 -8.41492188 7.84703125 -9.43359375 8.4765625 C-10.92904937 9.36427588 -12.44451357 10.22225679 -14 11 C-12.15931856 6.48196373 -9.00619182 3.23911848 -4.875 0.6875 C-3 0 -3 0 0 0 Z " fill="#1989CC" transform="translate(403,126)"/>
<path d="M0 0 C0.99 0 1.98 0 3 0 C2.7834375 1.2684375 2.7834375 1.2684375 2.5625 2.5625 C1.9941203 6.03593149 1.48797607 9.51445662 1 13 C0.34 11.68 -0.32 10.36 -1 9 C-1.66 9.99 -2.32 10.98 -3 12 C-2.49202991 7.6822542 -1.80317221 3.96697886 0 0 Z " fill="#F0F6E3" transform="translate(180,75)"/>
<path d="M0 0 C0 0.66 0 1.32 0 2 C-5.445 3.485 -5.445 3.485 -11 5 C-11.33 4.01 -11.66 3.02 -12 2 C-10.75579353 1.4654744 -9.50429064 0.94791389 -8.25 0.4375 C-7.55390625 0.14746094 -6.8578125 -0.14257812 -6.140625 -0.44140625 C-3.69987216 -1.07831803 -2.3596345 -0.80248831 0 0 Z " fill="#3094D1" transform="translate(414,123)"/>
<path d="M0 0 C-3.3 2.31 -6.6 4.62 -10 7 C-10.66 6.67 -11.32 6.34 -12 6 C-11.67 5.34 -11.34 4.68 -11 4 C-11.66 3.67 -12.32 3.34 -13 3 C-11.40084119 2.30093058 -9.79544955 1.61610532 -8.1875 0.9375 C-7.29417969 0.55464844 -6.40085938 0.17179687 -5.48046875 -0.22265625 C-3 -1 -3 -1 0 0 Z " fill="#EEF5E0" transform="translate(229,93)"/>
<path d="M0 0 C1.9451 2.91765 2.45276317 4.62537285 3 8 C3.33 8 3.66 8 4 8 C4 10.64 4 13.28 4 16 C3.34 15.34 2.68 14.68 2 14 C1.01 14.66 0.02 15.32 -1 16 C-0.83628906 15.29488281 -0.67257813 14.58976563 -0.50390625 13.86328125 C0.01699824 10.90341312 0.09866732 8.18938727 0.0625 5.1875 C0.05347656 4.21167969 0.04445312 3.23585937 0.03515625 2.23046875 C0.02355469 1.49441406 0.01195312 0.75835937 0 0 Z " fill="#F58E55" transform="translate(219,193)"/>
<path d="M0 0 C0.33 0.66 0.66 1.32 1 2 C1.66 2 2.32 2 3 2 C2.40312566 5.34249629 1.26396123 7.46436342 -1 10 C-1.66 10 -2.32 10 -3 10 C-2.49287967 6.28111761 -1.88391785 3.26545761 0 0 Z " fill="#2ABFBF" transform="translate(46,86)"/>
<path d="M0 0 C0.33 0 0.66 0 1 0 C1.34907695 3.75257718 1.27011863 5.56588078 -0.75 8.8125 C-3.05837183 11.05675039 -3.97329097 11.40864718 -7 12 C-6.66226563 11.46890625 -6.32453125 10.9378125 -5.9765625 10.390625 C-5.53054687 9.68421875 -5.08453125 8.9778125 -4.625 8.25 C-4.18414062 7.55390625 -3.74328125 6.8578125 -3.2890625 6.140625 C-2.08119094 4.13482617 -1.01612263 2.10821704 0 0 Z " fill="#FCE5DB" transform="translate(200,202)"/>
<path d="M0 0 C-2.99806666 3.34399743 -5.92709743 5.14063143 -10 7 C-10.99 7.495 -10.99 7.495 -12 8 C-9.82021749 2.45146271 -6.05820197 -0.69236594 0 0 Z " fill="#FCE8E0" transform="translate(285,168)"/>
<path d="M0 0 C-0.625 1.9375 -0.625 1.9375 -2 4 C-5.125 4.75 -5.125 4.75 -8 5 C-8 3.68 -8 2.36 -8 1 C-2.25 -1.125 -2.25 -1.125 0 0 Z " fill="#FCE6DC" transform="translate(185,197)"/>
<path d="M0 0 C1.32 0.66 2.64 1.32 4 2 C3.55090939 3.48199902 3.09043436 4.96055236 2.625 6.4375 C2.24214844 7.67306641 2.24214844 7.67306641 1.8515625 8.93359375 C1 11 1 11 -1 12 C-1.08159574 7.83861737 -0.98248524 4.0527516 0 0 Z " fill="#B8D772" transform="translate(190,84)"/>
<path d="M0 0 C0.66 0 1.32 0 2 0 C2.22275681 3.26709987 2.32663401 5.39572708 0.75 8.3125 C-1.20882376 10.20136577 -2.39430258 10.45624909 -5 11 C-4.72285156 10.45730469 -4.44570312 9.91460937 -4.16015625 9.35546875 C-3.79792969 8.64003906 -3.43570313 7.92460938 -3.0625 7.1875 C-2.52302734 6.12595703 -2.52302734 6.12595703 -1.97265625 5.04296875 C-0.89269484 2.88189715 -0.89269484 2.88189715 0 0 Z " fill="#CEEEEE" transform="translate(119,61)"/>
<path d="M0 0 C0.33 0 0.66 0 1 0 C1 5.28 1 10.56 1 16 C0.67 16 0.34 16 0 16 C-0.33 13.03 -0.66 10.06 -1 7 C-1.33 7 -1.66 7 -2 7 C-2.125 4.625 -2.125 4.625 -2 2 C-1.34 1.34 -0.68 0.68 0 0 Z " fill="#FCDFD1" transform="translate(187,200)"/>
<path d="M0 0 C0.66 0 1.32 0 2 0 C1.67 3.63 1.34 7.26 1 11 C0.67 11 0.34 11 0 11 C-0.33 9.35 -0.66 7.7 -1 6 C-1.66 6.99 -2.32 7.98 -3 9 C-2.25 2.25 -2.25 2.25 0 0 Z " fill="#FCDED0" transform="translate(299,144)"/>
<path d="M0 0 C0.99 0.33 1.98 0.66 3 1 C3 2.98 3 4.96 3 7 C1.68 7.33 0.36 7.66 -1 8 C-1.125 2.25 -1.125 2.25 0 0 Z " fill="#ECF4DC" transform="translate(188,77)"/>
<path d="M0 0 C0.66 0 1.32 0 2 0 C1.40072174 3.35595828 0.15377564 5.37801226 -2 8 C-3.32 7.67 -4.64 7.34 -6 7 C-5.04882866 5.8274869 -4.08882991 4.66212985 -3.125 3.5 C-2.59132813 2.8503125 -2.05765625 2.200625 -1.5078125 1.53125 C-0.76144531 0.77328125 -0.76144531 0.77328125 0 0 Z " fill="#FCDED1" transform="translate(332,170)"/>
<path d="M0 0 C0.33 0.66 0.66 1.32 1 2 C1.66 2 2.32 2 3 2 C2.67 5.3 2.34 8.6 2 12 C1.67 12 1.34 12 1 12 C0.67 10.35 0.34 8.7 0 7 C-1.65 7 -3.3 7 -5 7 C-3.68 6.67 -2.36 6.34 -1 6 C-0.67 4.02 -0.34 2.04 0 0 Z " fill="#59A7D9" transform="translate(383,141)"/>
<path d="M0 0 C0.99 0 1.98 0 3 0 C3 2.64 3 5.28 3 8 C2.01 8 1.02 8 0 8 C0 5.36 0 2.72 0 0 Z " fill="#F5F9ED" transform="translate(179,57)"/>
<path d="M0 0 C1.32 0 2.64 0 4 0 C4 3.63 4 7.26 4 11 C3.67 11 3.34 11 3 11 C2.67 8.36 2.34 5.72 2 3 C1.34 3.99 0.68 4.98 0 6 C-1.125 2.25 -1.125 2.25 0 0 Z " fill="#FBDCCF" transform="translate(301,171)"/>
<path d="M0 0 C0.33 0 0.66 0 1 0 C1.25 6.625 1.25 6.625 -1 10 C-1.66 10 -2.32 10 -3 10 C-2.69201674 8.51988629 -2.378482 7.04092675 -2.0625 5.5625 C-1.88847656 4.73878906 -1.71445313 3.91507812 -1.53515625 3.06640625 C-1 1 -1 1 0 0 Z " fill="#2CBFBF" transform="translate(82,63)"/>
<path d="M0 0 C0.33 0 0.66 0 1 0 C1.29296875 6.0546875 1.29296875 6.0546875 1 8 C0.01 8.66 -0.98 9.32 -2 10 C-1.85950482 8.52031676 -1.71245174 7.04125484 -1.5625 5.5625 C-1.48128906 4.73878906 -1.40007812 3.91507813 -1.31640625 3.06640625 C-1 1 -1 1 0 0 Z " fill="#FEF8F7" transform="translate(298,149)"/>
<path d="M0 0 C0.99 0.99 1.98 1.98 3 3 C0.63707344 5.52588702 -0.66462511 6.88820837 -4 8 C-2.87548273 5.0280615 -1.77706209 2.66559313 0 0 Z " fill="#D8F1F1" transform="translate(55,80)"/>
<path d="M0 0 C-1.625 1.5625 -1.625 1.5625 -4 3 C-7.25 2.6875 -7.25 2.6875 -10 2 C-6.16991045 -0.55339303 -4.41711378 -1.47237126 0 0 Z " fill="#C6EBEB" transform="translate(131,45)"/>
<path d="M0 0 C0.66 0.33 1.32 0.66 2 1 C1.67 2.65 1.34 4.3 1 6 C-0.32 6.33 -1.64 6.66 -3 7 C-1.125 1.125 -1.125 1.125 0 0 Z " fill="#FCE7DE" transform="translate(241,184)"/>
</svg>
