<?xml version="1.0" encoding="UTF-8"?>
<svg version="1.1" xmlns="http://www.w3.org/2000/svg" width="348" height="264">
<path d="M0 0 C11.76124143 5.49430256 17.62048522 17.3507431 22 29 C23.58959053 34.27100049 24.82666528 39.6233662 26 45 C27.05475708 41.87391002 28.07799059 38.74499705 29.04296875 35.58984375 C32.95634648 23.10176123 37.94927975 8.90835279 49.5 1.5625 C53.12819167 -0.05722842 55.0997271 -0.69338185 59 0 C61.375 1.5625 61.375 1.5625 63 4 C63.41847417 7.40757541 63.640169 9.79968313 62 12.875 C58.8045594 14.67243534 55.63526893 14.70202714 52 15 C53.14623922 21.42214458 55.0784021 26.87076795 58 32.6875 C64.49940235 45.83937034 66.80804671 60.03800072 62.5625 74.5 C56.9852087 88.2664831 46.45800498 98.86662991 34.8125 107.6875 C34.23024658 108.14664795 33.64799316 108.6057959 33.0480957 109.07885742 C30.09645575 111.2208855 28.59515451 112.09325351 24.93359375 111.51953125 C9.61864347 103.58675408 -3.85866389 89.63348871 -10 73.4375 C-14.22893549 56.54939812 -9.90207993 41.30930663 -2.37475586 26.2487793 C-0.53139897 22.49860653 0.52386171 19.15192593 1 15 C-0.8871875 14.8453125 -0.8871875 14.8453125 -2.8125 14.6875 C-5.27135361 14.3611035 -6.82493061 14.09847653 -9 12.875 C-10.640169 9.79968313 -10.41847417 7.40757541 -10 4 C-7.24058351 -0.13912474 -4.82968418 -0.91126117 0 0 Z " fill="#A8384D" transform="translate(25,83)"/>
<path d="M0 0 C2.5625 1.5625 2.5625 1.5625 3.5625 2.5625 C3.99322982 8.70039988 3.02672152 12.97915124 0.5625 18.5625 C0.27632812 19.24183594 -0.00984375 19.92117187 -0.3046875 20.62109375 C-1.00294783 22.27364321 -1.71842529 23.91890067 -2.4375 25.5625 C-3.4275 25.5625 -4.4175 25.5625 -5.4375 25.5625 C-6.015 24.7375 -6.5925 23.9125 -7.1875 23.0625 C-9.24956207 20.26796707 -9.24956207 20.26796707 -12.625 19.9375 C-20.49508033 21.2276771 -25.84423352 25.19119488 -30.4375 31.5625 C-28.7978125 31.7171875 -28.7978125 31.7171875 -27.125 31.875 C-22.495638 32.73810139 -22.495638 32.73810139 -20.4375 35.5625 C-19.45658059 43.91564186 -23.43817864 51.43676684 -28.1953125 57.98046875 C-41.55750368 74.12870384 -64.79290891 77.94789524 -84.4375 81.5625 C-84.82059326 81.06153809 -85.20368652 80.56057617 -85.59838867 80.04443359 C-86.1163501 79.39812988 -86.63431152 78.75182617 -87.16796875 78.0859375 C-87.67481201 77.44060059 -88.18165527 76.79526367 -88.70385742 76.13037109 C-90.82405652 74.21290615 -91.93617426 74.10523206 -94.75 74.1875 C-100.29207545 75.28652174 -104.54162522 78.58426 -108.4375 82.5625 C-109.68256718 84.67900917 -109.68256718 84.67900917 -110.4375 86.5625 C-105.4146036 89.26631445 -100.58937461 91.64458716 -95.0625 93.125 C-88.49078418 95.01591823 -88.49078418 95.01591823 -86.4375 98.5625 C-85.25934977 103.69586888 -86.19673167 107.79876589 -88.6875 112.375 C-99.35455319 128.41287718 -115.65276064 138.95860781 -133.4375 145.5625 C-134.675 146.07103516 -134.675 146.07103516 -135.9375 146.58984375 C-144.69852886 149.8012344 -156.81409072 150.52389763 -165.5625 146.9375 C-172.57522233 143.06419406 -176.7097949 139.24314332 -179.4375 131.5625 C-182.03636116 111.68121212 -173.54858658 92.48605874 -161.76171875 76.8828125 C-160.4375 75.5625 -160.4375 75.5625 -157.4375 74.5625 C-158.07175181 79.49990639 -160.19870681 83.53098776 -162.375 87.9375 C-166.53932131 96.3704369 -169.44869484 104.00354874 -168.4375 113.5625 C-166.77721286 118.28121083 -164.79259632 121.07387353 -160.4375 123.5625 C-142.32371808 128.95003964 -123.8432518 123.47241605 -107.4375 115.5625 C-109.4087419 114.56151302 -111.37643576 113.58920802 -113.40234375 112.703125 C-118.30225226 110.49088908 -121.61872876 108.31917647 -124.4375 103.5625 C-126.79295948 93.97883662 -121.43748241 83.57529112 -116.609375 75.5078125 C-109.43907705 65.21872641 -101.50836828 56.58612276 -89.4375 52.5625 C-86.05104917 52.1607177 -82.81433604 52.04340708 -79.4375 52.5625 C-78.6125 53.408125 -77.7875 54.25375 -76.9375 55.125 C-74.76884807 57.74347817 -74.76884807 57.74347817 -72.375 57.77734375 C-69.89622848 57.59703787 -69.89622848 57.59703787 -67.31640625 57.08203125 C-64.4375 56.5625 -64.4375 56.5625 -61.21484375 56.51171875 C-57.20865651 56.19778361 -54.88593339 55.67493655 -51.4375 53.5625 C-47.75532094 48.33773083 -45.78238875 42.0669577 -43.50244141 36.14355469 C-37.9822619 22.76452265 -27.3001303 5.72477168 -13.9140625 -0.63671875 C-8.84866192 -2.27458487 -4.80161595 -2.00794849 0 0 Z " fill="#EBF7EE" transform="translate(301.4375,75.4375)"/>
<path d="M0 0 C-0.433125 1.28197266 -0.433125 1.28197266 -0.875 2.58984375 C-2.03012809 5.95016889 -2.03012809 5.95016889 -2.8125 9.25390625 C-4.25548462 13.27432722 -5.57377095 16.40369369 -9 19 C-18.26370052 22.56060913 -29.10037758 24 -39 24 C-37.89657753 17.00722627 -35.14555325 10.69303717 -31 5 C-27.08680553 2.87852098 -23.38795077 2.44328403 -19 2 C-17.26757824 1.61866518 -15.53806895 1.22373372 -13.8125 0.8125 C-9.14582214 -0.10268318 -4.74671446 -0.15311982 0 0 Z " fill="#E3F4E7" transform="translate(327,113)"/>
<path d="M0 0 C2.99118287 0.66523152 4.53137318 1.68335102 6.8515625 3.67578125 C7.91503906 4.54589844 7.91503906 4.54589844 9 5.43359375 C10.4765625 7.55078125 10.4765625 7.55078125 10.47265625 10.4296875 C9.2908119 14.13279979 7.65282174 16.38573132 5.1640625 19.36328125 C4.38417969 20.31847656 3.60429687 21.27367188 2.80078125 22.2578125 C0.4765625 24.55078125 0.4765625 24.55078125 -1.515625 25.6015625 C-4.64697157 25.52236502 -6.03681092 23.96862393 -8.3359375 21.92578125 C-9.14675781 21.23226562 -9.95757812 20.53875 -10.79296875 19.82421875 C-12.5234375 17.55078125 -12.5234375 17.55078125 -12.55078125 15.171875 C-11.22412413 11.78713382 -9.43102216 9.16388031 -7.2734375 6.23828125 C-6.12101563 4.63533203 -6.12101563 4.63533203 -4.9453125 3 C-2.5234375 0.55078125 -2.5234375 0.55078125 0 0 Z " fill="#DFF3E6" transform="translate(216.5234375,86.44921875)"/>
<path d="M0 0 C0.66 0 1.32 0 2 0 C1.37954537 4.23322844 -0.10523559 7.52290295 -2.0625 11.3125 C-2.61035156 12.38113281 -3.15820312 13.44976562 -3.72265625 14.55078125 C-4.14417969 15.35902344 -4.56570312 16.16726562 -5 17 C-5.66 16.34 -6.32 15.68 -7 15 C-7.99 15.33 -8.98 15.66 -10 16 C-8.69091868 12.44408198 -7.12739559 9.44509001 -5 6.3125 C-4.2265625 5.16201172 -4.2265625 5.16201172 -3.4375 3.98828125 C-2 2 -2 2 0 0 Z " fill="#BAE3C5" transform="translate(142,150)"/>
<path d="M0 0 C-1.58561638 3.85593074 -4.06509954 6.33216291 -7 9.25 C-7.886875 10.14203125 -8.77375 11.0340625 -9.6875 11.953125 C-12 14 -12 14 -14 14 C-12.41438362 10.14406926 -9.93490046 7.66783709 -7 4.75 C-6.113125 3.85796875 -5.22625 2.9659375 -4.3125 2.046875 C-2 0 -2 0 0 0 Z " fill="#C3E5CA" transform="translate(203,133)"/>
<path d="M0 0 C-0.60698743 4.12751449 -2.03810791 7.3321148 -4 11 C-4.33 10.01 -4.66 9.02 -5 8 C-5.66 8 -6.32 8 -7 8 C-4.18918919 0 -4.18918919 0 0 0 Z " fill="#98DEA5" transform="translate(144,150)"/>
<path d="M0 0 C0.66 0 1.32 0 2 0 C0.41332422 3.90285767 -2.13350481 6.33520982 -5.125 9.25 C-6.03507812 10.14203125 -6.94515625 11.0340625 -7.8828125 11.953125 C-8.58148438 12.62859375 -9.28015625 13.3040625 -10 14 C-10 9.88181592 -8.33436007 8.84145243 -5.5625 5.875 C-4.73878906 4.98554687 -3.91507812 4.09609375 -3.06640625 3.1796875 C-1 1 -1 1 0 0 Z " fill="#AFE6BB" transform="translate(281,79)"/>
<path d="M0 0 C0.66 0 1.32 0 2 0 C1.67 1.65 1.34 3.3 1 5 C-0.32 5.33 -1.64 5.66 -3 6 C-1.125 1.125 -1.125 1.125 0 0 Z " fill="#BFE5C9" transform="translate(142,150)"/>
</svg>
