<?xml version="1.0" encoding="UTF-8"?>
<svg version="1.1" xmlns="http://www.w3.org/2000/svg" width="512" height="512">
<path d="M0 0 C1.57275306 -0.00374037 3.14550426 -0.00834343 4.71825254 -0.01373065 C9.02438186 -0.02592845 13.3304333 -0.02570398 17.63657594 -0.02334189 C22.28706695 -0.02293291 26.93753326 -0.03398075 31.5880127 -0.04345703 C40.6938234 -0.0600508 49.79960821 -0.06556586 58.90543278 -0.06668179 C66.31022324 -0.06763312 73.71500517 -0.07174767 81.11979294 -0.07808304 C102.12957483 -0.09569174 123.13933632 -0.1049226 144.14912565 -0.10342209 C145.8471299 -0.10330222 145.8471299 -0.10330222 147.57943726 -0.10317993 C149.27952326 -0.10305729 149.27952326 -0.10305729 151.01395445 -0.10293217 C169.37468573 -0.10211958 187.73533492 -0.12125139 206.09604247 -0.14945666 C224.96422272 -0.17821196 243.83236298 -0.19199547 262.7005657 -0.19026911 C273.28732672 -0.18960608 283.8740017 -0.19506017 294.46074295 -0.21662521 C303.47600259 -0.23487192 312.49113719 -0.23915579 321.50640734 -0.22560637 C326.10172038 -0.21909406 330.69679377 -0.21889636 335.29208374 -0.23631287 C339.50791896 -0.25212612 343.72332615 -0.24909659 347.93915145 -0.2317446 C349.45529198 -0.22869273 350.97146511 -0.23223784 352.48756714 -0.24346475 C371.85932479 -0.37728718 389.88488225 5.11196377 404.51644897 18.26742554 C405.39945679 19.04601929 406.2824646 19.82461304 407.19223022 20.62680054 C419.1197451 31.77894446 425.54779041 44.56996352 429.51644897 60.26742554 C429.69646045 60.95630954 429.87647192 61.64519354 430.06193829 62.35495281 C430.73648124 66.67737694 430.66446328 70.95949907 430.66362 75.32792664 C430.66729668 76.3499649 430.67097337 77.37200317 430.67476147 78.42501229 C430.68578696 81.85466619 430.6896403 85.28428978 430.69345093 88.71395874 C430.69971661 91.17146399 430.70636351 93.62896829 430.71336365 96.08647156 C430.73258332 103.46606491 430.74319254 110.84565022 430.75209144 118.22526124 C430.75648045 121.70639543 430.76184581 125.18752812 430.76708031 128.66866112 C430.7840928 140.25218674 430.7985835 151.83571143 430.80582905 163.41924763 C430.80773874 166.42340916 430.8096591 169.42757068 430.81161499 172.43173218 C430.81209873 173.17834263 430.81258247 173.92495307 430.81308087 174.69418808 C430.82136818 186.76904672 430.84668297 198.84380589 430.87919567 210.91862116 C430.91235453 223.33543494 430.93028591 235.75219834 430.93347329 248.16905659 C430.93563067 255.13249995 430.94426487 262.0957984 430.96993446 269.05919838 C430.99405817 275.61818781 430.99741205 282.1769648 430.98717308 288.73600578 C430.98667975 291.13362113 430.99293992 293.53124964 431.00672913 295.92882538 C431.14517646 321.44450897 426.40822042 343.00082646 408.06771851 361.75570679 C390.42691773 378.9467421 368.52215855 383.42419206 344.69810486 383.40786743 C343.18538889 383.41045397 341.67267361 383.41346794 340.15995926 383.41687083 C336.01507187 383.42491032 331.87020184 383.4267287 327.72530758 383.4274683 C323.24995725 383.42932422 318.7746158 383.43687432 314.29927063 383.44360352 C304.51792436 383.45716631 294.7365822 383.46320854 284.95522809 383.46761417 C278.84228698 383.47038043 272.72934744 383.47461852 266.61640739 383.47911835 C249.67643235 383.49130902 232.73645856 383.50160828 215.79647923 383.50499344 C214.71295581 383.505213 213.62943239 383.50543257 212.51307493 383.50565879 C211.42702168 383.50587707 210.34096843 383.50609535 209.22200447 383.50632024 C207.02140589 383.5067637 204.82080732 383.50721026 202.62020874 383.50765991 C200.98286432 383.50799206 200.98286432 383.50799206 199.31244224 383.50833091 C181.63846651 383.51227611 163.96453208 383.52972255 146.29057229 383.55301943 C128.12528596 383.57676973 109.96002031 383.58919699 91.79471821 383.59036136 C81.60360173 383.59127612 71.41253906 383.5969782 61.22143745 383.61518097 C52.54073309 383.63063176 43.86009916 383.63567322 35.17938364 383.62744287 C30.75601187 383.62355375 26.33278171 383.62438023 21.90942764 383.63850021 C17.84833044 383.6513444 13.78747974 383.64995073 9.72638237 383.6379095 C8.26872198 383.63597051 6.81104348 383.63894614 5.3534084 383.64775386 C-9.54981083 383.73199742 -24.04431766 382.0706889 -37.48355103 375.26742554 C-38.46710571 374.77500366 -39.4506604 374.28258179 -40.46401978 373.77523804 C-57.58694793 364.5160091 -69.85035749 349.5790598 -76.48355103 331.26742554 C-76.73715204 330.5714775 -76.99075306 329.87552946 -77.25203896 329.15849209 C-80.67303214 317.96292513 -79.90348753 306.28720652 -79.87173462 294.70321655 C-79.87580406 292.21025361 -79.88114803 289.71729247 -79.88766479 287.22433472 C-79.89988724 281.17762231 -79.8981494 275.13106509 -79.88942687 269.08435888 C-79.88262793 264.16579251 -79.88174312 259.2472574 -79.88499832 254.32868767 C-79.88545802 253.62634983 -79.88591772 252.92401199 -79.88639135 252.20039118 C-79.88735061 250.77320909 -79.88832325 249.34602701 -79.88930912 247.91884493 C-79.89784679 234.5620316 -79.88805478 221.20528022 -79.87190802 207.84847706 C-79.85850925 196.41119124 -79.86083244 184.97399681 -79.87466431 173.53671265 C-79.89075397 160.22643833 -79.89701989 146.9162182 -79.88782752 133.60593551 C-79.88687196 132.18395007 -79.88592885 130.76196463 -79.88499832 129.33997917 C-79.88453549 128.64050016 -79.88407267 127.94102116 -79.88359582 127.22034581 C-79.88101584 122.31358169 -79.88535545 117.40685221 -79.89243698 112.50009346 C-79.90177695 105.8835692 -79.8950352 99.26718984 -79.87775421 92.65067291 C-79.87380366 90.22922742 -79.87489872 87.80776735 -79.88154221 85.38632774 C-79.95328019 56.57174546 -79.95328019 56.57174546 -72.79605103 43.14242554 C-72.44647339 42.47066284 -72.09689575 41.79890015 -71.73672485 41.10678101 C-61.85106471 22.56756721 -47.05558344 9.96141402 -27.27651978 3.05648804 C-18.05272153 0.45060378 -9.52579901 -0.02151969 0 0 Z M6.51644897 51.26742554 C10.61546224 56.04960768 14.59267069 60.41322451 19.07504272 64.76351929 C21.06125639 66.80058002 22.91679323 68.86687719 24.77035522 71.02133179 C28.64490586 75.48740098 32.79998446 79.62638973 37.01644897 83.76742554 C41.78502672 88.45069778 46.36620864 93.18708905 50.72543335 98.25375366 C53.98835897 101.92232108 57.5149361 105.32855153 61.01644897 108.76742554 C65.78502672 113.45069778 70.36620864 118.18708905 74.72543335 123.25375366 C77.98835897 126.92232108 81.5149361 130.32855153 85.01644897 133.76742554 C89.79525699 138.46074504 94.38799992 143.20734532 98.75668335 148.28500366 C101.85038903 151.77014381 105.19081375 155.0054998 108.51644897 158.26742554 C112.47512271 162.15026261 116.36703235 166.03083216 119.98519897 170.23617554 C123.77786945 174.63945736 127.87218104 178.69729477 132.01644897 182.76742554 C136.79525699 187.46074504 141.38799992 192.20734532 145.75668335 197.28500366 C148.85038903 200.77014381 152.19081375 204.0054998 155.51644897 207.26742554 C160.21758582 211.87850229 164.74347162 216.55114275 169.02841187 221.55453491 C170.76696131 223.55579216 172.60438969 225.43184862 174.51644897 227.26742554 C178.46609608 225.7021276 180.61391168 223.17486915 183.39144897 220.01742554 C188.23177352 214.58999064 193.28226518 209.42519744 198.48080444 204.34066772 C201.4172222 201.44787284 204.2178321 198.50196974 206.90707397 195.37680054 C211.3950455 190.18033323 216.30441316 185.43094551 221.20004272 180.62289429 C225.23467388 176.63203852 229.05616635 172.55090545 232.75668335 168.24984741 C236.48036806 164.05501946 240.55300436 160.19325627 244.55551147 156.26742554 C247.82310199 153.03768356 250.9879723 149.78230928 253.98519897 146.29867554 C258.44205503 141.12427577 263.33091288 136.40491984 268.20004272 131.62289429 C271.59563458 128.26414429 274.90062666 124.8889013 278.01644897 121.26742554 C282.4608015 116.10181809 287.34151986 111.39450261 292.20004272 106.62289429 C295.59563458 103.26414429 298.90062666 99.8889013 302.01644897 96.26742554 C306.4608015 91.10181809 311.34151986 86.39450261 316.20004272 81.62289429 C320.2347929 77.63192079 324.05711178 73.55108918 327.75717163 69.24935913 C330.83113256 65.78635402 334.1487164 62.57028603 337.45394897 59.32992554 C338.79863442 58.01058761 340.14121251 56.6890971 341.48129272 55.36508179 C342.35708984 54.50668701 342.35708984 54.50668701 343.25057983 53.63095093 C344.62984491 52.45537237 344.62984491 52.45537237 344.51644897 51.26742554 C232.97644897 51.26742554 121.43644897 51.26742554 6.51644897 51.26742554 Z M-28.48355103 91.26742554 C-28.48355103 157.59742554 -28.48355103 223.92742554 -28.48355103 292.26742554 C-22.85768395 287.54818082 -22.85768395 287.54818082 -18.04605103 282.39242554 C-13.79079577 277.39629995 -9.12632154 272.85956826 -4.44448853 268.26742554 C-1.17689801 265.03768356 1.9879723 261.78230928 4.98519897 258.29867554 C9.44205503 253.12427577 14.33091288 248.40491984 19.20004272 243.62289429 C22.59563458 240.26414429 25.90062666 236.8889013 29.01644897 233.26742554 C33.4608015 228.10181809 38.34151986 223.39450261 43.20004272 218.62289429 C47.26425677 214.60277659 51.12299618 210.49306331 54.85092163 206.16000366 C57.42583298 203.23407097 60.17647239 200.49959824 62.95394897 197.76742554 C63.49471069 197.23117554 64.03547241 196.69492554 64.59262085 196.14242554 C65.89821514 194.84838518 67.20697894 193.5575438 68.51644897 192.26742554 C64.1134898 186.91247519 59.35431232 182.05229643 54.39535522 177.20883179 C52.21129275 175.03087218 50.18154828 172.7566658 48.16879272 170.41976929 C44.48112514 166.16051071 40.53674056 162.21070005 36.51644897 158.26742554 C32.55777524 154.38458847 28.6658656 150.50401891 25.04769897 146.29867554 C21.2550285 141.89539372 17.16071691 137.8375563 13.01644897 133.76742554 C8.24787123 129.0841533 3.66668931 124.34776202 -0.6925354 119.28109741 C-3.95546103 115.61253 -7.48203815 112.20629954 -10.98355103 108.76742554 C-15.89291796 103.9458827 -20.6264172 99.08687552 -25.05581665 93.81625366 C-26.42212769 92.15041669 -26.42212769 92.15041669 -28.48355103 91.26742554 Z M373.14926147 96.49789429 C372.56918335 97.0818396 371.98910522 97.66578491 371.39144897 98.26742554 C370.83457397 98.82043335 370.27769897 99.37344116 369.70394897 99.94320679 C366.71445462 102.93958937 363.84972384 105.99794367 361.08676147 109.20492554 C356.80626335 114.15413974 352.14592481 118.6883228 347.47738647 123.26742554 C344.20979596 126.49716751 341.04492565 129.75254179 338.04769897 133.23617554 C333.59084292 138.41057531 328.70198507 143.12993123 323.83285522 147.91195679 C320.43726337 151.27070678 317.13227129 154.64594978 314.01644897 158.26742554 C309.57209645 163.43303298 304.69137809 168.14034846 299.83285522 172.91195679 C293.64389475 179.0337676 287.87811726 185.40449014 282.51644897 192.26742554 C283.58572632 193.31930054 283.58572632 193.31930054 284.67660522 194.39242554 C285.6441922 195.35061847 286.6116321 196.30895993 287.57894897 197.26742554 C288.04494507 197.72504272 288.51094116 198.18265991 288.99105835 198.65414429 C291.73506202 201.37948127 294.33365266 204.1790488 296.85629272 207.11117554 C300.69921714 211.54949747 304.82974591 215.65561877 309.01644897 219.76742554 C313.78502672 224.45069778 318.36620864 229.18708905 322.72543335 234.25375366 C325.98835897 237.92232108 329.5149361 241.32855153 333.01644897 244.76742554 C337.78502672 249.45069778 342.36620864 254.18708905 346.72543335 259.25375366 C349.98835897 262.92232108 353.5149361 266.32855153 357.01644897 269.76742554 C361.79526014 274.46074813 366.42291943 279.16601918 370.6980896 284.32797241 C373.08144494 286.87004744 375.83949508 289.03663062 378.51644897 291.26742554 C378.51644897 225.59742554 378.51644897 159.92742554 378.51644897 92.26742554 C376.22959533 92.26742554 374.68865931 94.96209317 373.14926147 96.49789429 Z M101.16098022 232.39242554 C100.21178602 233.34562478 99.26799951 234.30423162 98.32894897 235.26742554 C96.94642944 236.65961304 96.94642944 236.65961304 95.53598022 238.07992554 C93.33676794 240.35843459 91.25025126 242.71138035 89.18441772 245.11117554 C84.66922875 250.31591878 79.74577965 255.0869201 74.83285522 259.91195679 C71.43726337 263.27070678 68.13227129 266.64594978 65.01644897 270.26742554 C60.57209645 275.43303298 55.69137809 280.14034846 50.83285522 284.91195679 C47.43726337 288.27070678 44.13227129 291.64594978 41.01644897 295.26742554 C36.57209645 300.43303298 31.69137809 305.14034846 26.83285522 309.91195679 C22.16995416 314.5242658 17.76856551 319.27541333 13.51644897 324.26742554 C11.53644897 326.57742554 9.55644897 328.88742554 7.51644897 331.26742554 C118.39644897 331.26742554 229.27644897 331.26742554 343.51644897 331.26742554 C339.18700617 326.21640894 334.84596555 321.51039863 330.1043396 316.89437866 C327.33144296 314.16509246 324.70690812 311.36990227 322.16879272 308.41976929 C318.3298353 303.9811892 314.20142141 299.87753264 310.01644897 295.76742554 C305.24787123 291.0841533 300.66668931 286.34776202 296.3074646 281.28109741 C293.04453897 277.61253 289.51796185 274.20629954 286.01644897 270.76742554 C281.88400483 266.70890705 277.79951746 262.66441198 274.02035522 258.27133179 C270.21949637 253.85347156 266.10963202 249.78672977 261.95394897 245.70492554 C256.89339842 240.73386306 252.05462815 235.72327759 247.51644897 230.26742554 C243.87484798 231.80254377 241.55201683 233.98739207 238.77816772 236.77523804 C237.4236853 238.13262085 237.4236853 238.13262085 236.0418396 239.51742554 C235.57495728 239.99051147 235.10807495 240.46359741 234.62704468 240.95101929 C233.22410777 242.37200737 231.81271405 243.78462997 230.4012146 245.19711304 C225.83358668 249.79395819 221.4192695 254.45198179 217.1993103 259.36849976 C213.50479011 263.53736354 209.45215913 267.36879796 205.47738647 271.26742554 C201.47726958 275.22120904 197.68862233 279.26837581 194.05941772 283.56674194 C189.00492392 289.13788179 182.95427658 290.99018138 175.64144897 291.57992554 C160.68282888 291.004594 152.09038057 278.95470671 142.63168335 268.7906189 C138.32801283 264.16640823 133.94986694 259.64216382 129.45394897 255.20492554 C125.57715951 251.37512394 121.87484544 247.4705433 118.34066772 243.32211304 C115.880343 240.550955 113.3070376 237.90413494 110.70394897 235.26742554 C110.22296753 234.77355347 109.74198608 234.2796814 109.24642944 233.77084351 C108.0419845 232.56297563 106.78297512 231.41002956 105.51644897 230.26742554 C103.23522179 230.04414266 103.23522179 230.04414266 101.16098022 232.39242554 Z " fill="#FFFFFF" transform="translate(80.48355102539063,63.732574462890625)"/>
</svg>
