<?xml version="1.0" encoding="UTF-8"?>
<svg version="1.1" xmlns="http://www.w3.org/2000/svg" width="512" height="512">
<path d="M0 0 C42.34369686 5.46061249 84.05331113 25.69608918 118.21484375 51.0546875 C118.79991699 51.4875708 119.38499023 51.9204541 119.98779297 52.36645508 C121.41049072 53.44704365 122.80301604 54.56707837 124.19140625 55.69140625 C128.33948059 57.62409735 131.59838574 56.79380638 136 56 C137.61032097 55.75803467 139.22100516 55.51847517 140.83203125 55.28125 C143.31402747 54.89459756 145.79508 54.50279052 148.27539062 54.10546875 C159.35518329 52.38753692 170.36268527 51.83696582 181.56640625 51.796875 C182.83935043 51.79117493 184.11229462 51.78547485 185.42381287 51.77960205 C188.11062155 51.77020449 190.79732014 51.76328229 193.48413086 51.75976562 C197.49935146 51.75328908 201.51419624 51.71911302 205.52929688 51.6875 C223.95096111 51.61204962 242.94522634 51.75009917 260.94360352 56.16308594 C265.50885229 57.22289191 268.31037755 56.90548094 272.48510742 54.66821289 C273.34982666 54.1086792 274.2145459 53.54914551 275.10546875 52.97265625 C276.08008057 52.35011963 277.05469238 51.72758301 278.05883789 51.08618164 C279.09129639 50.4183667 280.12375488 49.75055176 281.1875 49.0625 C290.63728319 43.05197932 300.16521583 37.35926347 310.03271484 32.06591797 C311.85378369 31.07922318 313.65635421 30.0585919 315.45703125 29.03515625 C336.26831111 17.40462385 359.08232584 8.25476235 382.25 2.625 C382.94182373 2.45677734 383.63364746 2.28855469 384.34643555 2.11523438 C388.30016544 1.21508742 391.94941472 0.83646705 396 1 C406.84203468 28.49001101 412.27157191 56.32163237 414.75 85.6875 C414.81520844 86.45258881 414.88041687 87.21767761 414.94760132 88.00595093 C416.93495448 111.77017121 416.93495448 111.77017121 415.16015625 120.36328125 C414.96405506 124.81621326 415.9552857 126.1092298 418.77246094 129.37475586 C419.32192383 129.97296143 419.87138672 130.57116699 420.4375 131.1875 C421.56133172 132.50065515 422.6797827 133.81843325 423.79296875 135.140625 C424.34388184 135.79095703 424.89479492 136.44128906 425.46240234 137.11132812 C429.21042101 141.71511859 432.11763817 146.821417 435 152 C435.4942749 152.88196045 435.4942749 152.88196045 435.99853516 153.78173828 C447.47437453 174.54362272 454.08210703 197.99597149 454.203125 221.74609375 C454.21018463 222.666147 454.21724426 223.58620026 454.22451782 224.53413391 C454.56978075 282.81887013 443.79867388 338.46646157 402.375 382 C385.75493993 398.15041944 364.79182357 412.02738162 343 420 C342.29794434 420.2582959 341.59588867 420.5165918 340.87255859 420.78271484 C331.34186698 424.20447589 321.66654293 426.66289504 311.75 428.6875 C310.36180054 428.97294678 310.36180054 428.97294678 308.94555664 429.26416016 C305.63828791 429.90316247 302.32515486 430.46118491 299 431 C298.26864838 431.12243073 297.53729675 431.24486145 296.78378296 431.3710022 C278.56858084 434.34327256 260.28931311 434.83701986 241.87829971 435.25414276 C239.28170429 435.31320043 236.68521539 435.37595653 234.0887146 435.43902588 C208.4569349 436.04674951 182.85963917 436.07196287 157.22848129 435.43398666 C154.85329023 435.3759959 152.47803039 435.32342562 150.10269165 435.2718811 C110.47421564 434.37924031 69.25047559 430.4939701 34 411 C33.37528809 410.65598145 32.75057617 410.31196289 32.10693359 409.95751953 C-8.31532759 387.39552363 -35.95592809 352.46563322 -48.87109375 308.00097656 C-52.52042657 294.84572034 -55.37188384 281.55966836 -57 268 C-57.0942627 267.26990723 -57.18852539 266.53981445 -57.28564453 265.78759766 C-58.31172671 256.55652917 -58.22197722 247.26395033 -58.24023438 237.98779297 C-58.24988711 235.03453829 -58.28096357 232.08199691 -58.3125 229.12890625 C-58.40133203 213.35073671 -57.08099853 197.92038016 -52.25 182.8125 C-51.99323486 181.98919189 -51.73646973 181.16588379 -51.47192383 180.31762695 C-44.95809342 160.02777987 -34.57058788 142.45007424 -20.69140625 126.31640625 C-18.66970729 124.07948757 -18.66970729 124.07948757 -19.25 121.0625 C-19.37640869 120.45921875 -19.50281738 119.8559375 -19.63305664 119.234375 C-21.39545463 108.50286041 -19.72386626 96.72652773 -18.8125 85.9375 C-18.71455139 84.76954895 -18.71455139 84.76954895 -18.61462402 83.57800293 C-16.1436062 54.72009723 -10.35204616 27.09660009 0 0 Z M33 236 C17.44144668 253.91296778 11.76948514 273.99234112 11.75 297.25 C11.74932526 297.96864227 11.74865051 298.68728455 11.74795532 299.42770386 C11.78731057 325.78946443 17.16245476 352.14190812 36.3671875 371.42578125 C37.67042969 372.70001953 37.67042969 372.70001953 39 374 C39.62132813 374.65355469 40.24265625 375.30710937 40.8828125 375.98046875 C63.99502916 398.62629539 105.04173196 402.90735022 135.5625 406.3125 C136.288927 406.39399292 137.015354 406.47548584 137.76379395 406.55944824 C157.56024394 408.73533905 177.34654078 409.20799008 197.25 409.1875 C198.34227905 409.18689575 199.43455811 409.1862915 200.55993652 409.18566895 C284.53253146 409.43077826 284.53253146 409.43077826 358 374 C358.6084375 373.48308594 359.216875 372.96617187 359.84375 372.43359375 C379.01319045 355.05039661 384.54516406 327.30904944 385.89794922 302.66748047 C386.85864577 277.55606773 379.66286904 254.59135352 362.625 235.75 C346.58891462 218.61898205 327.15885098 210.73964666 303.94998169 209.88809204 C300.54273755 209.82889251 297.13823217 209.81018263 293.73046875 209.8125 C292.46728317 209.81330566 291.2040976 209.81411133 289.90263367 209.81494141 C277.27703866 209.89457753 264.73493941 210.74699001 252.1496582 211.71118164 C212.90641338 214.66497426 174.62151733 214.35121788 135.39648438 211.42382812 C124.36014575 210.60731392 113.36028855 209.82132842 102.2890625 209.80078125 C101.48168137 209.79840454 100.67430023 209.79602783 99.842453 209.7935791 C75.03511413 210.0092681 50.14768305 217.47092466 33 236 Z " fill="#FEFEFE" transform="translate(58,38)"/>
<path d="M0 0 C12.07176573 8.84774332 19.46344323 21.22102428 22 36 C23.28878265 55.90388118 21.32942178 72.95010393 8.2578125 88.73046875 C2.04365004 94.97688465 -4.88648931 98.13163758 -13.625 98.3125 C-20.05824246 98.25293294 -24.54349977 97.36925645 -30 94 C-30.67417969 93.61070312 -31.34835938 93.22140625 -32.04296875 92.8203125 C-42.7231844 85.83788912 -47.82929867 73.67185871 -50.52832031 61.64599609 C-53.27542508 46.23547771 -51.79823316 28.66571028 -43.53125 15.15625 C-33.52494891 1.06574438 -17.10229853 -9.17755373 0 0 Z " fill="#FEFEFE" transform="translate(182,294)"/>
<path d="M0 0 C12.07176573 8.84774332 19.46344323 21.22102428 22 36 C23.28878265 55.90388118 21.32942178 72.95010393 8.2578125 88.73046875 C2.04365004 94.97688465 -4.88648931 98.13163758 -13.625 98.3125 C-20.05824246 98.25293294 -24.54349977 97.36925645 -30 94 C-30.67417969 93.61070312 -31.34835937 93.22140625 -32.04296875 92.8203125 C-42.7231844 85.83788912 -47.82929867 73.67185871 -50.52832031 61.64599609 C-53.57606854 44.54894882 -51.07466181 27.33187645 -41.84375 12.625 C-32.539523 -0.62169606 -15.2893913 -8.20469891 0 0 Z " fill="#FEFEFE" transform="translate(359,294)"/>
</svg>
